<svg width="13.000000" height="20.000000" viewBox="0 0 13 20" fill="none" xmlns="http://www.w3.org/2000/svg" xmlns:xlink="http://www.w3.org/1999/xlink">
	<desc>
			Created with Pixso.
	</desc>
	<defs/>
	<path id="evaFacebookOutline2" d="M8 20L4 20C3.73 20 3.48 19.89 3.29 19.7C3.1 19.51 3 19.26 3 19L3 12.8L1 12.8C0.73 12.8 0.48 12.69 0.29 12.5C0.1 12.31 0 12.06 0 11.8L0 8.19C0 7.93 0.1 7.68 0.29 7.49C0.48 7.3 0.73 7.19 1 7.19L3 7.19L3 5.5C3.07 3.97 3.74 2.54 4.86 1.51C5.98 0.48 7.47 -0.07 9 0L12 0C12.26 0 12.51 0.1 12.7 0.29C12.89 0.48 13 0.73 13 1L13 4.59C13 4.86 12.89 5.11 12.7 5.3C12.51 5.49 12.26 5.59 12 5.59L9 5.59L9 7.19L12 7.19C12.15 7.19 12.3 7.23 12.44 7.3C12.58 7.36 12.7 7.46 12.8 7.58C12.89 7.71 12.95 7.85 12.98 8.01C13.01 8.16 13 8.32 12.96 8.46L11.96 12.07C11.89 12.28 11.76 12.47 11.58 12.6C11.4 12.74 11.18 12.8 10.96 12.8L9 12.8L9 19C9 19.26 8.89 19.51 8.7 19.7C8.51 19.89 8.26 20 8 20ZM5 18L7 18L7 11.8C7 11.53 7.1 11.28 7.29 11.09C7.48 10.9 7.73 10.8 8 10.8L10.24 10.8L10.68 9.19L8 9.19C7.73 9.19 7.48 9.09 7.29 8.9C7.1 8.71 7 8.46 7 8.19L7 5.5C7.02 4.98 7.24 4.5 7.62 4.14C7.99 3.79 8.48 3.59 9 3.59L11 3.59L11 2L9 2C8 1.93 7.02 2.27 6.28 2.92C5.53 3.58 5.07 4.5 5 5.5L5 8.19C5 8.46 4.89 8.71 4.7 8.9C4.51 9.09 4.26 9.19 4 9.19L2 9.19L2 10.8L4 10.8C4.26 10.8 4.51 10.9 4.7 11.09C4.89 11.28 5 11.53 5 11.8L5 18Z" fill="#000000" fill-opacity="1.000000" fill-rule="nonzero"/>
</svg>
