<svg width="19.000000" height="17.000000" viewBox="0 0 19 17" fill="none" xmlns="http://www.w3.org/2000/svg" xmlns:xlink="http://www.w3.org/1999/xlink">
	<desc>
			Created with Pixso.
	</desc>
	<defs/>
	<path id="Vector" d="M13.81 2.98C13.46 2.48 12.52 1.76 10.99 2.07C10.09 2.25 9.56 2.69 9.22 3.27C8.86 3.89 8.69 4.73 8.69 5.72C8.69 5.98 8.58 6.24 8.39 6.42C8.21 6.61 7.95 6.72 7.69 6.72C5.32 6.72 3.07 6.01 1.17 4.11C1.03 4.88 0.97 5.67 1.01 6.45C1.06 7.54 1.32 8.63 1.93 9.56C2.54 10.48 3.53 11.32 5.2 11.84C5.36 11.9 5.51 11.99 5.62 12.11C5.74 12.24 5.82 12.39 5.86 12.56C5.91 12.72 5.9 12.9 5.86 13.06C5.81 13.23 5.73 13.38 5.61 13.5C5.07 14.05 4.47 14.52 3.81 14.9C4.87 15.02 5.89 15.02 6.84 14.94C8.76 14.76 10.29 14.21 11.25 13.44C13.26 11.8 14.34 9.37 14.14 5.29C14.1 4.62 14.75 3.9 15.06 3.35C14.59 3.44 14.12 3.42 13.81 2.98ZM0.59 0.98C0.77 0.96 0.95 0.99 1.12 1.06C1.29 1.14 1.43 1.26 1.53 1.41C3.01 3.57 4.78 4.46 6.75 4.67C6.84 3.83 7.07 3 7.5 2.27C8.12 1.19 9.14 0.4 10.59 0.11C12.6 -0.3 14.13 0.43 15.02 1.32L16.81 0.99C17 0.95 17.19 0.97 17.37 1.04C17.55 1.12 17.7 1.24 17.81 1.39C17.92 1.55 17.99 1.73 17.99 1.92C18 2.11 17.96 2.3 17.87 2.47L16.15 5.49C16.3 9.85 15.09 12.89 12.51 14.99C11.14 16.1 9.17 16.73 7.02 16.93C4.85 17.12 2.4 16.89 -0.04 16.18C-0.25 16.12 -0.43 15.99 -0.56 15.81C-0.69 15.64 -0.76 15.43 -0.76 15.21C-0.76 15 -0.69 14.78 -0.56 14.61C-0.43 14.44 -0.24 14.31 -0.03 14.25C1.19 13.9 2.13 13.6 2.97 13.08C1.77 12.44 0.89 11.61 0.26 10.66C-0.6 9.34 -0.93 7.87 -0.99 6.55C-1.05 5.22 -0.86 4 -0.66 3.11C-0.55 2.6 -0.41 2.1 -0.23 1.61C-0.16 1.44 -0.05 1.29 0.09 1.18C0.24 1.07 0.41 1 0.59 0.98Z" fill="#000000" fill-opacity="1.000000" fill-rule="evenodd"/>
</svg>
