<svg width="148.000000" height="15.000000" viewBox="0 0 148 15" fill="none" xmlns="http://www.w3.org/2000/svg" xmlns:xlink="http://www.w3.org/1999/xlink">
	<desc>
			Created with Pixso.
	</desc>
	<defs/>
	<path id="HIDEVA GROUP" d="M91.08 4.09L88.4 4.09C87.93 2.55 86.74 1.62 84.98 1.62C82.63 1.62 80.94 3.43 80.94 6.71C80.94 10.01 82.61 11.83 85.04 11.83C87.23 11.83 88.61 10.51 88.66 8.44L85.3 8.44L85.3 6.38L91.21 6.38L91.21 8.13C91.21 11.88 88.63 14.2 85.03 14.2C81.01 14.2 78.29 11.34 78.29 6.73C78.29 2.05 81.14 -0.75 84.95 -0.75C88.16 -0.75 90.64 1.24 91.08 4.09ZM113.08 -0.75C116.89 -0.75 119.77 2.02 119.77 6.72C119.77 11.42 116.89 14.2 113.08 14.2C109.26 14.2 106.4 11.42 106.4 6.72C106.4 2.02 109.26 -0.75 113.08 -0.75ZM2.06 14L-0.57 14L-0.57 -0.55L2.06 -0.55L2.06 5.61L8.81 5.61L8.81 -0.55L11.45 -0.55L11.45 14L8.81 14L8.81 7.82L2.06 7.82L2.06 14ZM14.31 -0.55L16.94 -0.55L16.94 14L14.31 14L14.31 -0.55ZM31.79 6.71C31.79 11.26 29.17 14 24.73 14L19.81 14L19.81 -0.55L24.84 -0.55C29.17 -0.55 31.79 2.18 31.79 6.71ZM43.81 14L34.3 14L34.3 -0.55L43.75 -0.55L43.75 1.66L36.93 1.66L36.93 5.61L43.27 5.61L43.27 7.82L36.93 7.82L36.93 11.79L43.81 11.79L43.81 14ZM45.5 -0.55L48.39 -0.55L52.18 10.9L52.33 10.9L56.11 -0.55L59 -0.55L53.87 14L50.62 14L45.5 -0.55ZM62.28 10.41L61.08 14L58.27 14L63.39 -0.55L66.64 -0.55L71.77 14L68.96 14L67.75 10.41L62.28 10.41ZM96.39 14L93.76 14L93.76 -0.55L99.21 -0.55C102.55 -0.55 104.34 1.32 104.34 4.1C104.34 6.08 103.43 7.54 101.73 8.23L104.87 14L101.93 14L99.07 8.67L96.39 8.67L96.39 14ZM131.43 8.73L131.43 -0.55L134.07 -0.55L134.07 8.95C134.07 12.08 131.71 14.21 128.17 14.21C124.61 14.21 122.26 12.08 122.26 8.95L122.26 -0.55L124.9 -0.55L124.9 8.73C124.9 10.56 126.16 11.87 128.17 11.87C130.16 11.87 131.43 10.56 131.43 8.73ZM139.57 14L136.94 14L136.94 -0.55L142.39 -0.55C145.74 -0.55 147.52 1.49 147.52 4.26C147.52 7.06 145.72 9.08 142.36 9.08L139.57 9.08L139.57 14ZM113.08 11.83C115.45 11.83 117.11 10.03 117.11 6.72C117.11 3.41 115.45 1.62 113.08 1.62C110.72 1.62 109.05 3.41 109.05 6.72C109.05 10.03 110.72 11.83 113.08 11.83ZM96.39 1.65L96.39 6.48L98.82 6.48C100.77 6.48 101.65 5.65 101.65 4.1C101.65 2.55 100.77 1.65 98.8 1.65L96.39 1.65ZM139.57 1.65L139.57 6.91L142 6.91C143.96 6.91 144.83 5.81 144.83 4.26C144.83 2.72 143.96 1.65 141.99 1.65L139.57 1.65ZM22.44 1.73L22.44 11.71L24.61 11.71C27.64 11.71 29.18 10.05 29.18 6.71C29.18 3.37 27.64 1.73 24.68 1.73L22.44 1.73ZM64.96 2.43L63 8.29L67.04 8.29L65.08 2.43L64.96 2.43Z" fill="#1D1D1D" fill-opacity="1.000000" fill-rule="evenodd"/>
</svg>
